<svg width="32" height="33" viewBox="0 0 32 33" fill="none" xmlns="http://www.w3.org/2000/svg">
<g id="arcticons:car">
<path id="Vector (Stroke)" fill-rule="evenodd" clip-rule="evenodd" d="M5.66374 24.0322C5.93759 24.0674 6.13107 24.3179 6.09597 24.5917C6.09597 24.5917 6.09598 24.5917 6.09597 24.5917L6.09577 24.5933L6.09491 24.6002L6.09143 24.6296C6.08842 24.6558 6.08416 24.6943 6.0794 24.7423C6.06985 24.8386 6.05843 24.9713 6.05086 25.1172C6.03451 25.4322 6.04127 25.7296 6.08272 25.883C6.09566 25.9308 6.10804 25.9808 6.11949 26.0271L6.12116 26.0338C6.13242 26.0794 6.14306 26.1224 6.1544 26.1655C6.17862 26.2575 6.20165 26.3323 6.22614 26.3909C6.22821 26.3958 6.2302 26.4005 6.23212 26.4048H7.93928C7.94119 26.4005 7.94319 26.3958 7.94525 26.3909C7.96975 26.3323 7.99278 26.2575 8.01699 26.1655C8.02833 26.1224 8.03898 26.0794 8.05024 26.0338L8.0519 26.0271C8.06333 25.9809 8.0758 25.9306 8.08872 25.8829C8.1301 25.7299 8.13689 25.4326 8.12054 25.1175C8.11296 24.9715 8.10155 24.8387 8.09199 24.7423C8.08723 24.6943 8.08297 24.6558 8.07996 24.6296L8.07648 24.6002L8.07561 24.5932L8.07543 24.5918C8.07543 24.5918 8.07544 24.5918 8.07543 24.5918C8.07544 24.5918 8.07543 24.5918 8.57136 24.5281L9.06729 24.4645C9.03213 24.1906 8.78158 23.997 8.50769 24.0322C8.23382 24.0674 8.04032 24.3179 8.07543 24.5918M8.57136 24.5281C9.06729 24.4645 9.06729 24.4644 9.06729 24.4645L9.06748 24.4659L9.06785 24.4688L9.06909 24.4789L9.07338 24.5151C9.07693 24.5459 9.08177 24.5898 9.08711 24.6437C9.09776 24.7511 9.1106 24.9001 9.11919 25.0656C9.13517 25.3737 9.14196 25.819 9.05401 26.1441C9.04735 26.1686 9.03917 26.2018 9.0296 26.2407C8.99471 26.3825 8.94057 26.6026 8.86798 26.7764C8.78347 26.9786 8.55799 27.4048 8.05136 27.4048H6.12003C5.61341 27.4048 5.38792 26.9786 5.30342 26.7764C5.23082 26.6026 5.17668 26.3825 5.14179 26.2407C5.13222 26.2018 5.1241 26.1688 5.11745 26.1443C5.02956 25.819 5.03621 25.3734 5.0522 25.0654C5.06079 24.8998 5.07363 24.7509 5.08428 24.6435C5.08963 24.5897 5.09447 24.5458 5.09802 24.515L5.1023 24.4789L5.10355 24.4688L5.10392 24.4659L5.10404 24.465C5.10404 24.4649 5.10411 24.4644 5.60003 24.5281L5.10404 24.465C5.13922 24.1911 5.38985 23.997 5.66374 24.0322" fill="black"/>
<path id="Vector (Stroke)_2" fill-rule="evenodd" clip-rule="evenodd" d="M5.97133 15.3708C4.60645 15.3708 3.5 16.4773 3.5 17.8422V21.5568C3.5 22.9217 4.60645 24.0282 5.97133 24.0282H26.0287C27.3935 24.0282 28.5 22.9217 28.5 21.5568V17.8422C28.5 16.4773 27.3935 15.3708 26.0287 15.3708H5.97133ZM2.5 17.8422C2.5 15.925 4.05417 14.3708 5.97133 14.3708H26.0287C27.9458 14.3708 29.5 15.925 29.5 17.8422V21.5568C29.5 23.474 27.9458 25.0282 26.0287 25.0282H5.97133C4.05417 25.0282 2.5 23.474 2.5 21.5568V17.8422Z" fill="black"/>
<path id="Vector (Stroke)_3" fill-rule="evenodd" clip-rule="evenodd" d="M23.4924 24.0322C23.7662 24.0674 23.9597 24.3179 23.9246 24.5917C23.9246 24.5917 23.9246 24.5917 23.9246 24.5917L23.9244 24.5933L23.9235 24.6002L23.92 24.6296C23.917 24.6558 23.9128 24.6943 23.908 24.7423C23.8985 24.8386 23.887 24.9713 23.8795 25.1172C23.8631 25.4322 23.8699 25.7296 23.9113 25.883C23.9243 25.9308 23.9367 25.9808 23.9481 26.0271L23.9498 26.0338C23.961 26.0794 23.9717 26.1224 23.983 26.1655C24.0072 26.2575 24.0303 26.3323 24.0548 26.3909C24.0568 26.3958 24.0588 26.4005 24.0607 26.4048H25.7679C25.7698 26.4005 25.7718 26.3958 25.7739 26.3909C25.7984 26.3323 25.8214 26.2575 25.8456 26.1655C25.8569 26.1224 25.8676 26.0794 25.8788 26.0338L25.8805 26.0271C25.8919 25.9809 25.9044 25.9306 25.9173 25.8829C25.9587 25.7299 25.9655 25.4326 25.9491 25.1175C25.9416 24.9715 25.9302 24.8387 25.9206 24.7423C25.9158 24.6943 25.9116 24.6558 25.9086 24.6296L25.9051 24.6002L25.9042 24.5932L25.904 24.5918C25.904 24.5918 25.904 24.5918 25.904 24.5918C25.9041 24.5918 25.904 24.5918 26.4 24.5281L26.8959 24.4645C26.8607 24.1906 26.6102 23.997 26.3363 24.0322C26.0624 24.0674 25.8689 24.3179 25.904 24.5918M26.4 24.5281C26.8959 24.4645 26.8959 24.4644 26.8959 24.4645L26.8961 24.4659L26.8965 24.4688L26.8977 24.4789L26.902 24.5151C26.9055 24.5459 26.9104 24.5898 26.9157 24.6437C26.9264 24.7511 26.9392 24.9001 26.9478 25.0656C26.9638 25.3737 26.9706 25.819 26.8826 26.1441C26.876 26.1686 26.8678 26.2018 26.8582 26.2407C26.8233 26.3825 26.7692 26.6026 26.6966 26.7764C26.6121 26.9786 26.3866 27.4048 25.88 27.4048H23.9486C23.442 27.4048 23.2165 26.9786 23.132 26.7764C23.0594 26.6026 23.0053 26.3825 22.9704 26.2407C22.9608 26.2018 22.9527 26.1688 22.9461 26.1443C22.8582 25.819 22.8648 25.3734 22.8808 25.0654C22.8894 24.8998 22.9022 24.7509 22.9129 24.6435C22.9182 24.5897 22.9231 24.5458 22.9266 24.515L22.9309 24.4789L22.9322 24.4688L22.9325 24.4659L22.9326 24.465C22.9327 24.4649 22.9327 24.4644 23.4286 24.5281L22.9326 24.465C22.9678 24.1911 23.2185 23.997 23.4924 24.0322" fill="black"/>
<path id="Vector (Stroke)_4" fill-rule="evenodd" clip-rule="evenodd" d="M7.0861 19.085C6.54154 19.085 6.1001 19.5264 6.1001 20.071C6.1001 20.6155 6.54154 21.057 7.0861 21.057C7.63065 21.057 8.0721 20.6155 8.0721 20.071C8.0721 19.5264 7.63065 19.085 7.0861 19.085ZM5.1001 20.071C5.1001 18.9741 5.98926 18.085 7.0861 18.085C8.18293 18.085 9.0721 18.9741 9.0721 20.071C9.0721 21.1678 8.18294 22.057 7.0861 22.057C5.98926 22.057 5.1001 21.1678 5.1001 20.071Z" fill="black"/>
<path id="Vector (Stroke)_5" fill-rule="evenodd" clip-rule="evenodd" d="M8.16439 8.30883C8.16439 8.30885 8.1644 8.30881 8.16439 8.30883L6.45574 14.9948C6.38737 15.2623 6.11505 15.4238 5.84751 15.3554C5.57997 15.287 5.41851 15.0147 5.48688 14.7472L7.19555 8.06116C7.37327 7.36609 7.83708 6.72289 8.40344 6.25643C8.96889 5.79072 9.6917 5.4563 10.4286 5.4563H21.5713C22.3083 5.4563 23.0311 5.79072 23.5965 6.25643C24.1629 6.72289 24.6267 7.36603 24.8044 8.0611L26.5131 14.7472C26.5814 15.0147 26.42 15.287 26.1524 15.3554C25.8849 15.4238 25.6126 15.2623 25.5442 14.9948L23.8356 8.30883C23.7213 7.8619 23.4007 7.3907 22.9608 7.02833C22.5199 6.66521 22.0144 6.4563 21.5713 6.4563H10.4286C9.98559 6.4563 9.48007 6.66521 9.03919 7.02833C8.59923 7.39069 8.27868 7.86192 8.16439 8.30883Z" fill="black"/>
<path id="Vector (Stroke)_6" fill-rule="evenodd" clip-rule="evenodd" d="M24.914 19.085C24.3694 19.085 23.928 19.5264 23.928 20.071C23.928 20.6155 24.3694 21.057 24.914 21.057C25.4585 21.057 25.9 20.6155 25.9 20.071C25.9 19.5264 25.4585 19.085 24.914 19.085ZM22.928 20.071C22.928 18.9741 23.8171 18.085 24.914 18.085C26.0108 18.085 26.9 18.9741 26.9 20.071C26.9 21.1678 26.0108 22.057 24.914 22.057C23.8171 22.057 22.928 21.1678 22.928 20.071Z" fill="black"/>
</g>
</svg>
