<svg width="215" height="43" viewBox="0 0 215 43" fill="none" xmlns="http://www.w3.org/2000/svg">
<g id="logos:google-play" clip-path="url(#clip0_1_83)">
<path id="Vector" d="M211.111 18.2849L207.147 28.3796H207.028L202.892 18.2849H199.153L205.35 32.3963L201.809 40.2451H205.442L214.995 18.2849H211.111ZM183.099 9.90794H179.637V33.1892H183.099V9.90794ZM170.071 9.90794H161.746V33.1892H165.235V24.3762H170.084C171.061 24.4096 172.036 24.2486 172.951 23.9023C173.866 23.556 174.703 23.0314 175.413 22.359C176.124 21.6866 176.694 20.8797 177.09 19.9853C177.486 19.0908 177.7 18.1266 177.721 17.1486C177.7 16.1688 177.486 15.2028 177.089 14.3067C176.692 13.4107 176.121 12.6023 175.41 11.9287C174.698 11.255 173.859 10.7295 172.943 10.3825C172.026 10.0355 171.05 9.87449 170.071 9.90794ZM170.163 21.1251H165.235V13.1976H170.176C171.227 13.1976 172.236 13.6152 172.979 14.3586C173.723 15.102 174.14 16.1102 174.14 17.1615C174.14 18.2129 173.723 19.2211 172.979 19.9645C172.236 20.7079 171.227 21.1255 170.176 21.1255L170.163 21.1251ZM191.635 17.7823C190.367 17.7092 189.105 18.0079 188.004 18.6415C186.903 19.2752 186.011 20.2164 185.437 21.3496L188.529 22.6711C188.835 22.1107 189.299 21.652 189.862 21.3515C190.426 21.051 191.065 20.9218 191.701 20.9798C192.137 20.9361 192.578 20.9791 192.998 21.1064C193.418 21.2337 193.809 21.4427 194.148 21.7214C194.486 22.0001 194.767 22.3431 194.973 22.7305C195.179 23.118 195.306 23.5423 195.347 23.9791V24.217C194.239 23.6182 193 23.3048 191.74 23.3052C188.424 23.3052 185.041 25.1289 185.041 28.5907C185.041 31.709 187.75 33.7174 190.815 33.7174C191.688 33.7725 192.559 33.5903 193.336 33.1902C194.113 32.79 194.767 32.1868 195.228 31.4447H195.361V33.2415H198.743V24.2836C198.743 20.1479 195.651 17.8489 191.661 17.8489L191.635 17.7823ZM191.225 30.5463C190.089 30.5463 188.503 29.9649 188.503 28.5643C188.503 26.7674 190.471 26.0805 192.19 26.0805C193.297 26.0503 194.393 26.3197 195.36 26.8596C195.233 27.8701 194.744 28.8003 193.984 29.4781C193.223 30.1558 192.243 30.5353 191.225 30.5463ZM65.9374 33.691C59.0951 33.7136 53.5064 28.2309 53.3979 21.3894C53.5068 14.5479 59.0951 9.06521 65.9374 9.08783C67.5041 9.0616 69.0603 9.34848 70.5147 9.93164C71.9691 10.5148 73.2924 11.3825 74.407 12.4839L72.0153 14.8491C70.3932 13.2597 68.2084 12.3762 65.9374 12.3913C60.9971 12.3913 56.9921 16.3963 56.9921 21.3366C56.9921 26.2769 60.9971 30.282 65.9374 30.282C67.092 30.3292 68.2437 30.1337 69.3179 29.708C70.3922 29.2824 71.3652 28.636 72.1741 27.8108C73.2492 26.6513 73.8971 25.16 74.0107 23.5829H65.9374V20.3197H77.3008C77.4248 21.0129 77.4821 21.7161 77.4725 22.4206C77.5868 25.3456 76.5367 28.1966 74.5523 30.3486C73.432 31.48 72.0857 32.3624 70.6012 32.9383C69.1168 33.5143 67.5277 33.7707 65.9374 33.691ZM95.0461 25.763C95.0898 26.8201 94.9194 27.8752 94.545 28.8647C94.1706 29.8543 93.6 30.7579 92.8675 31.5214C92.1349 32.2848 91.2556 32.8922 90.2824 33.3072C89.3091 33.7222 88.262 33.9361 87.204 33.9361C86.146 33.9361 85.0989 33.7222 84.1257 33.3072C83.1524 32.8922 82.2731 32.2848 81.5406 31.5214C80.8081 30.7579 80.2375 29.8543 79.8631 28.8647C79.4887 27.8752 79.3182 26.8201 79.3619 25.763C79.3182 24.7059 79.4887 23.6509 79.8631 22.6613C80.2375 21.6717 80.8081 20.7681 81.5406 20.0047C82.2731 19.2412 83.1524 18.6338 84.1257 18.2188C85.0989 17.8039 86.146 17.5899 87.204 17.5899C88.262 17.5899 89.3091 17.8039 90.2824 18.2188C91.2556 18.6338 92.1349 19.2412 92.8675 20.0047C93.6 20.7681 94.1706 21.6717 94.545 22.6613C94.9194 23.6509 95.0898 24.7059 95.0461 25.763ZM91.6107 25.763C91.6688 25.1493 91.598 24.5303 91.403 23.9455C91.208 23.3607 90.8929 22.8231 90.4781 22.3672C90.0632 21.9112 89.5577 21.5469 88.9939 21.2977C88.4301 21.0484 87.8205 20.9196 87.204 20.9196C86.5876 20.9196 85.9779 21.0484 85.4141 21.2977C84.8504 21.5469 84.3448 21.9112 83.93 22.3672C83.5151 22.8231 83.2001 23.3607 83.005 23.9455C82.81 24.5303 82.7393 25.1493 82.7973 25.763C82.7393 26.3767 82.81 26.9958 83.005 27.5805C83.2001 28.1653 83.5151 28.7029 83.93 29.1589C84.3448 29.6148 84.8504 29.9791 85.4141 30.2284C85.9779 30.4776 86.5876 30.6064 87.204 30.6064C87.8205 30.6064 88.4301 30.4776 88.9939 30.2284C89.5577 29.9791 90.0632 29.6148 90.4781 29.1589C90.8929 28.7029 91.208 28.1653 91.403 27.5805C91.598 26.9958 91.6688 26.3767 91.6107 25.763ZM112.62 25.763C112.62 30.0906 109.111 33.5984 104.784 33.5984C100.457 33.5984 96.9485 30.0906 96.9485 25.763C96.9485 21.4355 100.457 17.9276 104.784 17.9276C109.112 17.9276 112.62 21.4355 112.62 25.763ZM109.198 25.763C109.256 25.1493 109.185 24.5303 108.99 23.9455C108.795 23.3607 108.48 22.8231 108.065 22.3672C107.65 21.9112 107.145 21.5469 106.581 21.2977C106.017 21.0484 105.407 20.9196 104.791 20.9196C104.175 20.9196 103.565 21.0484 103.001 21.2977C102.437 21.5469 101.932 21.9112 101.517 22.3672C101.102 22.8231 100.787 23.3607 100.592 23.9455C100.397 24.5303 100.326 25.1493 100.384 25.763C100.326 26.3769 100.396 26.9962 100.591 27.5812C100.786 28.1662 101.101 28.7041 101.516 29.1603C101.931 29.6165 102.437 29.9809 103 30.2304C103.564 30.4798 104.174 30.6086 104.791 30.6086C105.407 30.6086 106.017 30.4798 106.581 30.2304C107.145 29.9809 107.651 29.6165 108.066 29.1603C108.48 28.7041 108.795 28.1662 108.99 27.5812C109.185 26.9962 109.256 26.3769 109.198 25.763ZM129.77 18.3243V32.5546C129.77 38.3946 126.295 40.7997 122.199 40.7997C120.697 40.8123 119.226 40.3798 117.97 39.5567C116.714 38.7336 115.73 37.5569 115.143 36.1752L118.142 34.8537C118.453 35.6606 118.995 36.3579 119.7 36.8586C120.405 37.3592 121.242 37.6408 122.106 37.6684C124.749 37.6684 126.361 36.0432 126.361 33.017V31.8807H126.229C125.711 32.459 125.075 32.9197 124.363 33.232C123.652 33.5442 122.883 33.7007 122.106 33.691C117.728 33.691 114.178 30.1417 114.178 25.763C114.178 21.3844 117.728 17.8351 122.106 17.8351C122.888 17.8182 123.664 17.9673 124.384 18.2724C125.104 18.5776 125.75 19.032 126.282 19.6055H126.414V18.2845H129.77V18.3243ZM126.691 25.8028C126.74 25.2048 126.668 24.6031 126.479 24.0335C126.291 23.4639 125.99 22.9379 125.594 22.4868C125.199 22.0358 124.716 21.6688 124.176 21.4077C123.636 21.1466 123.049 20.9966 122.45 20.9668C121.839 20.9871 121.238 21.129 120.683 21.3842C120.127 21.6394 119.628 22.0027 119.215 22.453C118.801 22.9033 118.482 23.4314 118.275 24.0066C118.068 24.5817 117.978 25.1924 118.01 25.8028C117.982 26.4091 118.075 27.015 118.284 27.5848C118.493 28.1547 118.813 28.677 119.227 29.1213C119.64 29.5656 120.138 29.9228 120.692 30.1721C121.245 30.4213 121.843 30.5575 122.45 30.5726C123.045 30.5495 123.63 30.4063 124.169 30.1517C124.708 29.897 125.19 29.5362 125.586 29.0908C125.982 28.6453 126.284 28.1245 126.474 27.5595C126.664 26.9946 126.738 26.397 126.691 25.8028ZM135.888 9.93349V33.2022H132.399V9.9339L135.888 9.93349ZM149.629 28.3796L152.351 30.1764C151.624 31.2607 150.641 32.1488 149.489 32.7619C148.336 33.3749 147.05 33.6939 145.745 33.6906C144.706 33.7053 143.676 33.5093 142.715 33.1142C141.755 32.7192 140.884 32.1334 140.157 31.3923C139.429 30.6512 138.86 29.7702 138.482 28.8027C138.105 27.8351 137.928 26.801 137.962 25.763C137.642 22.0688 140.144 18.7222 143.779 17.985C147.413 17.2478 151.022 19.3551 152.166 22.8826L152.523 23.7944L141.952 28.1676C142.282 28.908 142.825 29.5327 143.513 29.9614C144.201 30.39 145.001 30.6029 145.811 30.5726C146.581 30.5606 147.335 30.353 148.003 29.9693C148.671 29.5856 149.231 29.0384 149.629 28.3791M141.292 25.5247L148.401 22.5915C148.126 22.0528 147.699 21.6067 147.172 21.3084C146.646 21.0101 146.044 20.8727 145.441 20.9132C144.864 20.9385 144.298 21.0785 143.775 21.325C143.253 21.5715 142.785 21.9196 142.399 22.3489C142.013 22.7782 141.716 23.2801 141.526 23.8254C141.336 24.3706 141.256 24.9483 141.292 25.5247Z" fill="white"/>
<g id="Group 1413373573">
<path id="Vector_2" d="M17.4746 19.6047L0.695801 37.1842C0.884176 37.852 1.22275 38.4679 1.68563 38.9848C2.14851 39.5016 2.72344 39.9059 3.36649 40.1665C4.00953 40.4271 4.70365 40.5373 5.39579 40.4886C6.08793 40.4398 6.75976 40.2335 7.35993 39.8853L26.2398 29.1325L17.4746 19.6047Z" fill="#EA4335"/>
<path id="Vector_3" d="M34.4416 16.6164L26.2769 11.9403L17.0869 20.0051L26.3142 29.1072L34.4167 24.481C35.1345 24.1052 35.7357 23.5401 36.1553 22.8469C36.5748 22.1537 36.7966 21.359 36.7966 20.5487C36.7966 19.7385 36.5748 18.9437 36.1553 18.2505C35.7357 17.5573 35.1345 16.9922 34.4167 16.6164H34.4416Z" fill="#FBBC04"/>
<path id="Vector_4" d="M0.69541 3.82544C0.594296 4.20056 0.543777 4.58752 0.545195 4.97603V36.034C0.546384 36.4224 0.59672 36.8088 0.69541 37.1841L18.0497 20.0553L0.69541 3.82544Z" fill="#4285F4"/>
<path id="Vector_5" d="M17.5999 20.5048L26.277 11.9402L7.42176 1.13788C6.71235 0.722317 5.90549 0.502141 5.08333 0.499764C4.09068 0.497854 3.12464 0.820614 2.3325 1.41883C1.54036 2.01706 0.965579 2.85791 0.695801 3.8132L17.5999 20.5048Z" fill="#34A853"/>
</g>
</g>
<defs>
<clipPath id="clip0_1_83">
<rect width="214.45" height="42.3037" fill="white" transform="translate(0.545166 0.499756)"/>
</clipPath>
</defs>
</svg>
